<svg width="30" height="30" viewBox="0 0 30 30" fill="none" xmlns="http://www.w3.org/2000/svg">
<path d="M24.0375 19.075L20.8625 18.7125C20.4892 18.6687 20.1108 18.71 19.7557 18.8334C19.4006 18.9568 19.0782 19.1591 18.8125 19.425L16.5125 21.725C12.9642 19.9199 10.0801 17.0358 8.27499 13.4875L10.5875 11.175C11.125 10.6375 11.3875 9.88752 11.3 9.12502L10.9375 5.97502C10.8669 5.36513 10.5743 4.80254 10.1156 4.39451C9.65681 3.98647 9.06395 3.76151 8.44999 3.76252H6.28749C4.87499 3.76252 3.69999 4.93752 3.78749 6.35002C4.44999 17.025 12.9875 25.55 23.65 26.2125C25.0625 26.3 26.2375 25.125 26.2375 23.7125V21.55C26.25 20.2875 25.3 19.225 24.0375 19.075Z" fill="#D3D3D3"/>
</svg>
