<svg width="30" height="30" viewBox="0 0 30 30" fill="none" xmlns="http://www.w3.org/2000/svg">
<g clip-path="url(#clip0_2089_131)">
<path d="M5.625 16.875C5.88867 16.875 6.13281 16.9238 6.35742 17.0215C6.58203 17.1191 6.77734 17.251 6.94336 17.417C7.10938 17.583 7.24609 17.7832 7.35352 18.0176C7.46094 18.252 7.50977 18.4961 7.5 18.75C7.5 19.0137 7.45117 19.2578 7.35352 19.4824C7.25586 19.707 7.12402 19.9023 6.95801 20.0684C6.79199 20.2344 6.5918 20.3711 6.35742 20.4785C6.12305 20.5859 5.87891 20.6348 5.625 20.625C5.36133 20.625 5.11719 20.5762 4.89258 20.4785C4.66797 20.3809 4.47266 20.249 4.30664 20.083C4.14062 19.917 4.00391 19.7168 3.89648 19.4824C3.78906 19.248 3.74023 19.0039 3.75 18.75C3.75 18.4863 3.79883 18.2422 3.89648 18.0176C3.99414 17.793 4.12598 17.5977 4.29199 17.4316C4.45801 17.2656 4.6582 17.1289 4.89258 17.0215C5.12695 16.9141 5.37109 16.8652 5.625 16.875ZM24.375 16.875C24.6387 16.875 24.8828 16.9238 25.1074 17.0215C25.332 17.1191 25.5273 17.251 25.6934 17.417C25.8594 17.583 25.9961 17.7832 26.1035 18.0176C26.2109 18.252 26.2598 18.4961 26.25 18.75C26.25 19.0137 26.2012 19.2578 26.1035 19.4824C26.0059 19.707 25.874 19.9023 25.708 20.0684C25.542 20.2344 25.3418 20.3711 25.1074 20.4785C24.873 20.5859 24.6289 20.6348 24.375 20.625C24.1113 20.625 23.8672 20.5762 23.6426 20.4785C23.418 20.3809 23.2227 20.249 23.0566 20.083C22.8906 19.917 22.7539 19.7168 22.6465 19.4824C22.5391 19.248 22.4902 19.0039 22.5 18.75C22.5 18.4863 22.5488 18.2422 22.6465 18.0176C22.7441 17.793 22.876 17.5977 23.042 17.4316C23.208 17.2656 23.4082 17.1289 23.6426 17.0215C23.877 16.9141 24.1211 16.8652 24.375 16.875ZM29.458 13.125L28.4912 14.0771C28.5107 14.126 28.5596 14.2725 28.6377 14.5166C28.7158 14.7607 28.8086 15.0488 28.916 15.3809C29.0234 15.7129 29.1455 16.0693 29.2822 16.4502C29.4189 16.8311 29.5361 17.1777 29.6338 17.4902C29.7314 17.8027 29.8193 18.0664 29.8975 18.2812C29.9756 18.4961 30.0098 18.6035 30 18.6035V28.125C30 28.3887 29.9512 28.6328 29.8535 28.8574C29.7559 29.082 29.624 29.2773 29.458 29.4434C29.292 29.6094 29.0918 29.7461 28.8574 29.8535C28.623 29.9609 28.3789 30.0098 28.125 30H26.25C25.9863 30 25.7422 29.9512 25.5176 29.8535C25.293 29.7559 25.0977 29.624 24.9316 29.458C24.7656 29.292 24.6289 29.0918 24.5215 28.8574C24.4141 28.623 24.3652 28.3789 24.375 28.125H5.625C5.625 28.3887 5.57617 28.6328 5.47852 28.8574C5.38086 29.082 5.24902 29.2773 5.08301 29.4434C4.91699 29.6094 4.7168 29.7461 4.48242 29.8535C4.24805 29.9609 4.00391 30.0098 3.75 30H1.875C1.61133 30 1.36719 29.9512 1.14258 29.8535C0.917969 29.7559 0.722656 29.624 0.556641 29.458C0.390625 29.292 0.253906 29.0918 0.146484 28.8574C0.0390625 28.623 -0.00976562 28.3789 1.16415e-10 28.125V18.6035L0.102539 18.2959L0.366211 17.5049L0.717773 16.4502C0.844727 16.0693 0.961914 15.7129 1.06934 15.3809C1.17676 15.0488 1.27441 14.7607 1.3623 14.5166C1.4502 14.2725 1.49902 14.126 1.50879 14.0771L0.541992 13.125H1.16415e-10V11.25H1.33301L2.16797 12.0996L3.25195 8.83301C3.4082 8.35449 3.63281 7.91992 3.92578 7.5293C4.21875 7.13867 4.56543 6.80176 4.96582 6.51855C5.36621 6.23535 5.79102 6.01562 6.24023 5.85938C6.68945 5.70312 7.17773 5.625 7.70508 5.625H22.2949C22.8027 5.625 23.2861 5.70312 23.7451 5.85938C24.2041 6.01562 24.6338 6.23047 25.0342 6.50391C25.4346 6.77734 25.7764 7.11426 26.0596 7.51465C26.3428 7.91504 26.5723 8.35449 26.748 8.83301L27.832 12.0996L28.667 11.25H30V13.125H29.458ZM7.70508 7.5C7.08984 7.5 6.54297 7.67578 6.06445 8.02734C5.58594 8.37891 5.24414 8.84277 5.03906 9.41895L3.79395 13.125H26.2061L24.9609 9.41895C24.7656 8.84277 24.4287 8.37891 23.9502 8.02734C23.4717 7.67578 22.9199 7.5 22.2949 7.5H7.70508ZM20.625 25.5322L19.1016 22.5H10.8984L9.375 25.5322V26.25H20.625V25.5322ZM28.125 26.25V18.8965L28.0371 18.6328C27.9785 18.457 27.9053 18.2275 27.8174 17.9443C27.7295 17.6611 27.627 17.3633 27.5098 17.0508C27.3926 16.7383 27.29 16.4307 27.2021 16.1279C27.1143 15.8252 27.0312 15.5762 26.9531 15.3809C26.875 15.1855 26.8311 15.0586 26.8213 15H3.17871C3.15918 15.0488 3.11523 15.1758 3.04688 15.3809C2.97852 15.5859 2.89551 15.8301 2.79785 16.1133C2.7002 16.3965 2.59766 16.7041 2.49023 17.0361C2.38281 17.3682 2.28516 17.6709 2.19727 17.9443C2.10938 18.2178 2.03125 18.4424 1.96289 18.6182C1.89453 18.7939 1.86523 18.8867 1.875 18.8965V26.25H7.5V25.0928L9.72656 20.625H20.2734L22.5 25.0928V26.25H28.125Z" fill="#D3D3D3"/>
</g>
<defs>
<clipPath id="clip0_2089_131">
<rect width="30" height="30" fill="white"/>
</clipPath>
</defs>
</svg>
