<svg width="30" height="30" viewBox="0 0 30 30" fill="none" xmlns="http://www.w3.org/2000/svg">
<path d="M4.6875 3.75V26.25H6.5625V18.75H25.3125V3.75H4.6875ZM6.5625 5.625H9.375V8.4375H12.1875V5.625H15V8.4375H17.8125V5.625H20.625V8.4375H23.4375V11.25H20.625V14.0625H23.4375V16.875H20.625V14.0625H17.8125V16.875H15V14.0625H12.1875V16.875H9.375V14.0625H6.5625V11.25H9.375V8.4375H6.5625V5.625ZM9.375 11.25V14.0625H12.1875V11.25H9.375ZM12.1875 11.25H15V8.4375H12.1875V11.25ZM15 11.25V14.0625H17.8125V11.25H15ZM17.8125 11.25H20.625V8.4375H17.8125V11.25Z" fill="#D3D3D3"/>
</svg>
