<svg width="30" height="30" viewBox="0 0 30 30" fill="none" xmlns="http://www.w3.org/2000/svg">
<path d="M5 12.6788C5 7.0575 9.4775 2.5 15 2.5C20.5225 2.5 25 7.0575 25 12.6788C25 18.2563 21.8088 24.7663 16.8288 27.0925C16.2564 27.3605 15.632 27.4995 15 27.4995C14.368 27.4995 13.7436 27.3605 13.1712 27.0925C8.19125 24.765 5 18.2575 5 12.68V12.6788Z" stroke="#D3D3D3" stroke-width="3"/>
<path d="M15 16.25C17.0711 16.25 18.75 14.5711 18.75 12.5C18.75 10.4289 17.0711 8.75 15 8.75C12.9289 8.75 11.25 10.4289 11.25 12.5C11.25 14.5711 12.9289 16.25 15 16.25Z" stroke="#D3D3D3" stroke-width="3"/>
</svg>
